<svg xmlns="http://www.w3.org/2000/svg" viewBox="0 0 128 128" style="enable-background:new 0 0 128 128" xml:space="preserve">
  <path style="fill:#fff" d="M65.865 13.635 63.793 0l-2.221 13.916v.007c-4.471 8.838-14.153 30.964-14.153 56.864 0 .977.007 1.954.015 2.916.089 6.84.481 13.383 1.118 19.453.244 2.265.518 4.464.829 6.588h12.073l-2.82-29.853h9.897l-2.924 29.853h12.606c.333-2.317.629-4.715.888-7.202.622-6.077.992-12.613 1.059-19.446.007-.77.015-1.54.015-2.31-.001-26.187-9.905-48.513-14.31-57.151zM63.793 50.15c-3.472 0-6.292-2.82-6.292-6.292s2.82-6.292 6.292-6.292c3.479 0 6.292 2.82 6.292 6.292s-2.813 6.292-6.292 6.292zm0-1.233c-2.789 0-5.058-2.269-5.058-5.058s2.269-5.058 5.058-5.058 5.058 2.269 5.058 5.058-2.269 5.058-5.058 5.058zm0-7.896a2.84 2.84 0 0 0-2.837 2.838 2.84 2.84 0 0 0 2.837 2.838 2.84 2.84 0 0 0 2.837-2.838 2.84 2.84 0 0 0-2.837-2.838zm-19.579 65.261-7.654-19.49 8.653-13.087c.089 6.84.481 13.383 1.118 19.453-3.376 6.277-2.117 13.124-2.117 13.124zm39.58 0s1.332-7.299-2.472-13.739c.622-6.077.992-12.613 1.059-19.446l9.06 13.694-7.647 19.491zM63.526 128l.133-.022.133.022h-.266zm9.712-10.615c-1.969-3.449-1.969-2.709-1.969-2.709s-4.39 12.488-7.61 13.302c-3.22-.814-7.602-13.302-7.602-13.302s0-.74-1.976 2.709c-4.441-4.811-1.355-16.403-1.355-16.403h4.39c-.333 1.48-1.355 6.862.896 9.297 1.162-2.043 1.162-1.606 1.162-1.606s2.583 7.358 4.486 7.839c1.902-.481 4.486-7.839 4.486-7.839s0-.437 1.162 1.606c2.25-2.435 1.229-7.817.903-9.297h4.39c-.001 0 3.078 11.592-1.363 16.403zm-9.497-.851h-.163c.03-.007.052-.007.081-.022.03.014.052.014.082.022zm2.586-44.175-2.795 35.158-2.695-35.158h5.49z"/>
</svg>
